<?xml version="1.0" encoding="utf-8"?>
<!-- Generator: Adobe Illustrator 24.0.1, SVG Export Plug-In . SVG Version: 6.00 Build 0)  -->
<svg version="1.1" id="Capa_1" xmlns="http://www.w3.org/2000/svg" xmlns:xlink="http://www.w3.org/1999/xlink" x="0px" y="0px"
	 viewBox="0 0 468.3 468.3" style="enable-background:new 0 0 468.3 468.3;" xml:space="preserve">
<style type="text/css">
	.st0{fill:#820F07;}
	.st1{fill:#EBF0F3;}
	.st2{fill:#A81201;}
	.st3{fill:none;stroke:#FFFFFF;stroke-width:3;stroke-miterlimit:10;}
</style>
<path class="st0" d="M29.5,50.4h112c7.3,0,14.1,3.9,17.8,10.3l18.4,25.2c3.7,6.4,10.4,10.3,17.8,10.3h272.8v287.5
	c0,15.1-12.2,27.3-27.3,27.3H27.3C12.2,411,0,398.8,0,383.7V128.1c0-21.1,3.3-42.1,9.7-62.3l0,0C12,56.8,20.2,50.4,29.5,50.4z"/>
<rect x="42.6" y="91.5" class="st1" width="360" height="152.1"/>
<path class="st2" d="M447.8,64.1H334.9c-8,0-15.3,4.7-18.6,12L297,118.4c-3.3,7.3-10.6,12-18.6,12H0v260.2
	c0,15.1,12.2,27.3,27.3,27.3H441c15.1,0,27.3-12.2,27.3-27.3V84.6C468.3,73.3,459.1,64.1,447.8,64.1z"/>
<image style="overflow:visible;" width="512" height="512" xlink:href="marvel-282124.png"  transform="matrix(0.6183 0 0 0.6183 74.3807 95.7513)">
</image>
<rect x="33.1" y="173.4" class="st3" width="395.8" height="168.2"/>
</svg>
