<?xml version="1.0" encoding="utf-8"?>
<!-- Generator: Adobe Illustrator 24.0.1, SVG Export Plug-In . SVG Version: 6.00 Build 0)  -->
<svg version="1.1" xmlns="http://www.w3.org/2000/svg" xmlns:xlink="http://www.w3.org/1999/xlink" x="0px" y="0px"
	 viewBox="0 0 400 400" style="enable-background:new 0 0 400 400;" xml:space="preserve">
<style type="text/css">
	.st0{fill:#931B1F;}
	.st1{fill:#44E8FF;}
</style>
<g id="circle">
	<path class="st0" d="M200,12.9C96.7,12.9,12.9,96.7,12.9,200S96.7,387.1,200,387.1S387.1,303.3,387.1,200S303.3,12.9,200,12.9z
		 M200,361.4c-89.1,0-161.4-72.2-161.4-161.4S110.9,38.6,200,38.6S361.4,110.9,361.4,200S289.1,361.4,200,361.4z"/>
</g>
<g id="center">
	<g>
		<polygon class="st0" points="200.7,248.9 150.6,145.7 252.2,145.7 		"/>
		<path class="st1" d="M254.4,131.8h-97.8c-4.3,0-8.6-1-12.4-2.9l-45.5-22.9h204.3l-33.7,21.5C264.8,130.2,259.7,131.8,254.4,131.8z
			"/>
		<path class="st1" d="M214.6,257.9l41.1-82.6c1.8-3.7,4.5-6.8,7.9-9.2l39.6-28.2l-85.8,172.5l-5.1-38.1
			C211.5,267.4,212.3,262.4,214.6,257.9z"/>
		<path class="st1" d="M141.9,168.7l41.7,82.3c1.8,3.6,2.8,7.7,2.7,11.8l-1.1,48.6L98.2,139.5l33.6,18.6
			C136.1,160.6,139.7,164.2,141.9,168.7z"/>
	</g>
</g>
</svg>
