<?xml version="1.0" encoding="utf-8"?>
<!-- Generator: Adobe Illustrator 24.0.1, SVG Export Plug-In . SVG Version: 6.00 Build 0)  -->
<svg version="1.1" xmlns="http://www.w3.org/2000/svg" xmlns:xlink="http://www.w3.org/1999/xlink" x="0px" y="0px"
	 viewBox="0 0 400 400" style="enable-background:new 0 0 400 400;" xml:space="preserve">
<style type="text/css">
	.st0{opacity:0.33;fill:#DD9BA0;}
	.st1{fill:#931B1F;}
</style>
<g id="Capa_1">
	<path class="st0" d="M275.3,128c-1.1,0.3-14.3,9.7-35.9,7.7h-90.1c-15.4-1.1-26.2-7.3-26.2-7.3l-32.8-18.7h214L275.3,128z"/>
	<path class="st0" d="M209,278.6c0.3-1.1-1.1-17.3,11.4-34.9l45.4-77.8c8.7-12.7,19.5-18.9,19.5-18.9l32.7-18.9L210.2,313L209,278.6
		z"/>
	<path class="st0" d="M111.9,145.7c0.8,0.8,15.6,7.6,24.6,27.2l45,78c6.7,13.9,6.8,26.3,6.8,26.3l0.2,37.8l-107-185.4L111.9,145.7z"
		/>
	<polygon class="st1" points="198,250.8 139.8,149.3 258.4,149.3 	"/>
</g>
<g id="Capa_2">
</g>
</svg>
